<mxfile host="drawio-plugin" modified="2022-10-18T21:55:15.593Z" agent="5.0 (Macintosh; Intel Mac OS X 12_4_0) AppleWebKit/537.36 (KHTML, like Gecko) Chrome/89.0.4389.114 Safari/537.36" etag="w1N2SiLvO2AWxt8SbxJq" version="15.5.4" type="embed"><diagram id="IsxjU3ME-59ng5WSaAje" name="Page-1"><mxGraphModel dx="1144" dy="692" grid="1" gridSize="10" guides="1" tooltips="1" connect="1" arrows="1" fold="1" page="1" pageScale="1" pageWidth="850" pageHeight="1100" math="0" shadow="0"><root><mxCell id="0"/><mxCell id="1" parent="0"/><mxCell id="-ZBcIIhH2qEHdeJ_sZWa-12" style="edgeStyle=orthogonalEdgeStyle;rounded=0;orthogonalLoop=1;jettySize=auto;html=1;exitX=1;exitY=0.5;exitDx=0;exitDy=0;" parent="1" source="-ZBcIIhH2qEHdeJ_sZWa-10" edge="1"><mxGeometry relative="1" as="geometry"><mxPoint x="380" y="105" as="targetPoint"/></mxGeometry></mxCell><mxCell id="-ZBcIIhH2qEHdeJ_sZWa-10" value="main()" style="html=1;strokeColor=default;" parent="1" vertex="1"><mxGeometry x="170" y="80" width="110" height="50" as="geometry"/></mxCell><mxCell id="-ZBcIIhH2qEHdeJ_sZWa-30" value="" style="endArrow=open;endFill=1;endSize=12;html=1;rounded=0;exitX=0.213;exitY=-0.025;exitDx=0;exitDy=0;exitPerimeter=0;entryX=1.006;entryY=0.657;entryDx=0;entryDy=0;entryPerimeter=0;" parent="1" source="-ZBcIIhH2qEHdeJ_sZWa-52" target="-ZBcIIhH2qEHdeJ_sZWa-47" edge="1"><mxGeometry width="160" relative="1" as="geometry"><mxPoint x="680.06" y="191.034" as="sourcePoint"/><mxPoint x="570" y="150" as="targetPoint"/></mxGeometry></mxCell><mxCell id="-ZBcIIhH2qEHdeJ_sZWa-31" value="IS -A&amp;nbsp;" style="html=1;strokeColor=default;fillColor=none;" parent="1" vertex="1"><mxGeometry x="435" y="210" width="110" height="50" as="geometry"/></mxCell><mxCell id="-ZBcIIhH2qEHdeJ_sZWa-44" value="Character" style="swimlane;fontStyle=1;align=center;verticalAlign=top;childLayout=stackLayout;horizontal=1;startSize=26;horizontalStack=0;resizeParent=1;resizeParentMax=0;resizeLast=0;collapsible=1;marginBottom=0;strokeColor=default;fillColor=none;" parent="1" vertex="1"><mxGeometry x="410" y="44" width="160" height="148" as="geometry"/></mxCell><mxCell id="-ZBcIIhH2qEHdeJ_sZWa-45" value="- alertMeter: Integer" style="text;strokeColor=none;fillColor=none;align=left;verticalAlign=top;spacingLeft=4;spacingRight=4;overflow=hidden;rotatable=0;points=[[0,0.5],[1,0.5]];portConstraint=eastwest;" parent="-ZBcIIhH2qEHdeJ_sZWa-44" vertex="1"><mxGeometry y="26" width="160" height="44" as="geometry"/></mxCell><mxCell id="-ZBcIIhH2qEHdeJ_sZWa-46" value="" style="line;strokeWidth=1;fillColor=none;align=left;verticalAlign=middle;spacingTop=-1;spacingLeft=3;spacingRight=3;rotatable=0;labelPosition=right;points=[];portConstraint=eastwest;strokeColor=inherit;" parent="-ZBcIIhH2qEHdeJ_sZWa-44" vertex="1"><mxGeometry y="70" width="160" height="8" as="geometry"/></mxCell><mxCell id="-ZBcIIhH2qEHdeJ_sZWa-47" value="+ move()//abstract&#10;+ listen()//asbstract &#10;+ look ()// abstract" style="text;strokeColor=none;fillColor=none;align=left;verticalAlign=top;spacingLeft=4;spacingRight=4;overflow=hidden;rotatable=0;points=[[0,0.5],[1,0.5]];portConstraint=eastwest;" parent="-ZBcIIhH2qEHdeJ_sZWa-44" vertex="1"><mxGeometry y="78" width="160" height="70" as="geometry"/></mxCell><mxCell id="-ZBcIIhH2qEHdeJ_sZWa-48" value="Player" style="swimlane;fontStyle=1;align=center;verticalAlign=top;childLayout=stackLayout;horizontal=1;startSize=26;horizontalStack=0;resizeParent=1;resizeParentMax=0;resizeLast=0;collapsible=1;marginBottom=0;strokeColor=default;fillColor=none;" parent="1" vertex="1"><mxGeometry x="190" y="200" width="185" height="218" as="geometry"/></mxCell><mxCell id="-ZBcIIhH2qEHdeJ_sZWa-49" value="+ field: type&#10;- items: Items" style="text;strokeColor=none;fillColor=none;align=left;verticalAlign=top;spacingLeft=4;spacingRight=4;overflow=hidden;rotatable=0;points=[[0,0.5],[1,0.5]];portConstraint=eastwest;" parent="-ZBcIIhH2qEHdeJ_sZWa-48" vertex="1"><mxGeometry y="26" width="185" height="44" as="geometry"/></mxCell><mxCell id="-ZBcIIhH2qEHdeJ_sZWa-50" value="" style="line;strokeWidth=1;fillColor=none;align=left;verticalAlign=middle;spacingTop=-1;spacingLeft=3;spacingRight=3;rotatable=0;labelPosition=right;points=[];portConstraint=eastwest;strokeColor=inherit;" parent="-ZBcIIhH2qEHdeJ_sZWa-48" vertex="1"><mxGeometry y="70" width="185" height="8" as="geometry"/></mxCell><mxCell id="-ZBcIIhH2qEHdeJ_sZWa-51" value="+ look () {...}&#10;+ listen() {...}&#10;+ open()&#10;+ pickupItems()&#10;+ hide ()&#10;+ run ()&#10;+ read()&#10;&#10;" style="text;strokeColor=none;fillColor=none;align=left;verticalAlign=top;spacingLeft=4;spacingRight=4;overflow=hidden;rotatable=0;points=[[0,0.5],[1,0.5]];portConstraint=eastwest;" parent="-ZBcIIhH2qEHdeJ_sZWa-48" vertex="1"><mxGeometry y="78" width="185" height="140" as="geometry"/></mxCell><mxCell id="-ZBcIIhH2qEHdeJ_sZWa-52" value="Neighbour" style="swimlane;fontStyle=1;align=center;verticalAlign=top;childLayout=stackLayout;horizontal=1;startSize=26;horizontalStack=0;resizeParent=1;resizeParentMax=0;resizeLast=0;collapsible=1;marginBottom=0;strokeColor=default;fillColor=none;" parent="1" vertex="1"><mxGeometry x="620" y="200" width="160" height="200" as="geometry"/></mxCell><mxCell id="-ZBcIIhH2qEHdeJ_sZWa-53" value="+ field: type" style="text;strokeColor=none;fillColor=none;align=left;verticalAlign=top;spacingLeft=4;spacingRight=4;overflow=hidden;rotatable=0;points=[[0,0.5],[1,0.5]];portConstraint=eastwest;" parent="-ZBcIIhH2qEHdeJ_sZWa-52" vertex="1"><mxGeometry y="26" width="160" height="26" as="geometry"/></mxCell><mxCell id="-ZBcIIhH2qEHdeJ_sZWa-54" value="" style="line;strokeWidth=1;fillColor=none;align=left;verticalAlign=middle;spacingTop=-1;spacingLeft=3;spacingRight=3;rotatable=0;labelPosition=right;points=[];portConstraint=eastwest;strokeColor=inherit;" parent="-ZBcIIhH2qEHdeJ_sZWa-52" vertex="1"><mxGeometry y="52" width="160" height="8" as="geometry"/></mxCell><mxCell id="-ZBcIIhH2qEHdeJ_sZWa-55" value="+ move() {....}&#10;+ chase()&#10;+ catch ()&#10;+" style="text;strokeColor=none;fillColor=none;align=left;verticalAlign=top;spacingLeft=4;spacingRight=4;overflow=hidden;rotatable=0;points=[[0,0.5],[1,0.5]];portConstraint=eastwest;" parent="-ZBcIIhH2qEHdeJ_sZWa-52" vertex="1"><mxGeometry y="60" width="160" height="140" as="geometry"/></mxCell><mxCell id="-ZBcIIhH2qEHdeJ_sZWa-58" value="" style="endArrow=open;endFill=1;endSize=12;html=1;rounded=0;exitX=0.5;exitY=0;exitDx=0;exitDy=0;entryX=-0.012;entryY=0.729;entryDx=0;entryDy=0;entryPerimeter=0;" parent="1" source="-ZBcIIhH2qEHdeJ_sZWa-48" target="-ZBcIIhH2qEHdeJ_sZWa-47" edge="1"><mxGeometry width="160" relative="1" as="geometry"><mxPoint x="290" y="160" as="sourcePoint"/><mxPoint x="380" y="160" as="targetPoint"/></mxGeometry></mxCell><mxCell id="-ZBcIIhH2qEHdeJ_sZWa-61" value="Directions" style="swimlane;fontStyle=1;align=center;verticalAlign=top;childLayout=stackLayout;horizontal=1;startSize=26;horizontalStack=0;resizeParent=1;resizeParentMax=0;resizeLast=0;collapsible=1;marginBottom=0;strokeColor=default;fillColor=none;" parent="1" vertex="1"><mxGeometry x="10" y="192" width="120" height="190" as="geometry"/></mxCell><mxCell id="-ZBcIIhH2qEHdeJ_sZWa-62" value="- east: String&#10;- west: String&#10;- north: String&#10;- south: String&#10;" style="text;strokeColor=none;fillColor=none;align=left;verticalAlign=top;spacingLeft=4;spacingRight=4;overflow=hidden;rotatable=0;points=[[0,0.5],[1,0.5]];portConstraint=eastwest;" parent="-ZBcIIhH2qEHdeJ_sZWa-61" vertex="1"><mxGeometry y="26" width="120" height="84" as="geometry"/></mxCell><mxCell id="-ZBcIIhH2qEHdeJ_sZWa-63" value="" style="line;strokeWidth=1;fillColor=none;align=left;verticalAlign=middle;spacingTop=-1;spacingLeft=3;spacingRight=3;rotatable=0;labelPosition=right;points=[];portConstraint=eastwest;strokeColor=inherit;" parent="-ZBcIIhH2qEHdeJ_sZWa-61" vertex="1"><mxGeometry y="110" width="120" height="40" as="geometry"/></mxCell><mxCell id="-ZBcIIhH2qEHdeJ_sZWa-65" value="" style="line;strokeWidth=1;fillColor=none;align=left;verticalAlign=middle;spacingTop=-1;spacingLeft=3;spacingRight=3;rotatable=0;labelPosition=right;points=[];portConstraint=eastwest;strokeColor=inherit;" parent="-ZBcIIhH2qEHdeJ_sZWa-61" vertex="1"><mxGeometry y="150" width="120" height="40" as="geometry"/></mxCell><mxCell id="-ZBcIIhH2qEHdeJ_sZWa-66" value="Items" style="swimlane;fontStyle=1;align=center;verticalAlign=top;childLayout=stackLayout;horizontal=1;startSize=20;horizontalStack=0;resizeParent=1;resizeParentMax=0;resizeLast=0;collapsible=1;marginBottom=0;strokeColor=default;fillColor=none;" parent="1" vertex="1"><mxGeometry x="10" y="430" width="160" height="200" as="geometry"/></mxCell><mxCell id="-ZBcIIhH2qEHdeJ_sZWa-67" value="- lighter: String&#10;- crowBar: String&#10;- flashLight: String&#10;&#10;" style="text;strokeColor=none;fillColor=none;align=left;verticalAlign=top;spacingLeft=4;spacingRight=4;overflow=hidden;rotatable=0;points=[[0,0.5],[1,0.5]];portConstraint=eastwest;" parent="-ZBcIIhH2qEHdeJ_sZWa-66" vertex="1"><mxGeometry y="20" width="160" height="90" as="geometry"/></mxCell><mxCell id="-ZBcIIhH2qEHdeJ_sZWa-68" value="" style="line;strokeWidth=1;fillColor=none;align=left;verticalAlign=middle;spacingTop=-1;spacingLeft=3;spacingRight=3;rotatable=0;labelPosition=right;points=[];portConstraint=eastwest;strokeColor=inherit;" parent="-ZBcIIhH2qEHdeJ_sZWa-66" vertex="1"><mxGeometry y="110" width="160" height="8" as="geometry"/></mxCell><mxCell id="-ZBcIIhH2qEHdeJ_sZWa-69" value="+ method(type): type" style="text;strokeColor=none;fillColor=none;align=left;verticalAlign=top;spacingLeft=4;spacingRight=4;overflow=hidden;rotatable=0;points=[[0,0.5],[1,0.5]];portConstraint=eastwest;" parent="-ZBcIIhH2qEHdeJ_sZWa-66" vertex="1"><mxGeometry y="118" width="160" height="82" as="geometry"/></mxCell></root></mxGraphModel></diagram></mxfile>